<?xml version="1.0" standalone="no"?>
<!DOCTYPE svg PUBLIC "-//W3C//DTD SVG 20010904//EN"
 "http://www.w3.org/TR/2001/REC-SVG-20010904/DTD/svg10.dtd">
<svg version="1.0" xmlns="http://www.w3.org/2000/svg"
 width="96.000000pt" height="96.000000pt" viewBox="0 0 96.000000 96.000000"
 preserveAspectRatio="xMidYMid meet">

<g transform="translate(0.000000,96.000000) scale(0.100000,-0.100000)"
fill="#000000" stroke="none">
<path d="M350 640 c-42 -42 -11 -113 49 -113 59 0 88 59 51 106 -26 33 -71 36
-100 7z m85 -20 c3 -5 -1 -10 -9 -10 -9 0 -16 5 -16 10 0 6 4 10 9 10 6 0 13
-4 16 -10z m-50 -60 c-5 -8 -11 -8 -17 -2 -6 6 -7 16 -3 22 5 8 11 8 17 2 6
-6 7 -16 3 -22z"/>
<path d="M516 644 c-38 -37 -27 -96 20 -114 67 -26 125 59 74 110 -24 24 -72
26 -94 4z m84 -24 c0 -5 -7 -10 -16 -10 -8 0 -12 5 -9 10 3 6 10 10 16 10 5 0
9 -4 9 -10z m-50 -50 c0 -11 -4 -20 -9 -20 -14 0 -23 18 -16 30 10 17 25 11
25 -10z"/>
<path d="M312 495 c-15 -33 -15 -100 -1 -128 17 -32 61 -77 76 -77 16 0 16 0
-4 41 -9 19 -18 59 -18 89 -2 50 -20 100 -36 100 -3 0 -11 -11 -17 -25z"/>
<path d="M611 498 c-8 -13 -15 -47 -16 -78 0 -30 -9 -70 -18 -89 -20 -41 -20
-41 -4 -41 15 0 59 45 76 77 14 28 14 95 -1 128 -14 31 -19 31 -37 3z"/>
</g>
</svg>
